<svg width="18" height="15" fill="none" xmlns="http://www.w3.org/2000/svg"><path d="M16.183 4.038c.012.15.012.302.012.454 0 4.605-3.507 9.912-9.913 9.912A9.852 9.852 0 0 1 .93 12.84c.28.032.55.042.841.042a6.98 6.98 0 0 0 4.325-1.488A3.489 3.489 0 0 1 2.84 8.977c.216.032.432.054.657.054.314 0 .627-.043.918-.118a3.485 3.485 0 0 1-2.795-3.42v-.042c.464.258 1.003.42 1.575.442a3.483 3.483 0 0 1-1.077-4.66 9.897 9.897 0 0 0 7.184 3.646 3.865 3.865 0 0 1-.088-.8A3.483 3.483 0 0 1 12.698.598c1.003 0 1.91.42 2.546 1.1a6.874 6.874 0 0 0 2.212-.841 3.467 3.467 0 0 1-1.532 1.919 6.958 6.958 0 0 0 2.006-.54 7.512 7.512 0 0 1-1.747 1.803z" fill="#fff"/></svg>